<svg xmlns="http://www.w3.org/2000/svg" xmlns:xlink="http://www.w3.org/1999/xlink" width="18.868" height="23.064" viewBox="0 0 18.868 23.064">
  <defs>
    <clipPath id="clip-path">
      <path id="Path_244" data-name="Path 244" d="M52.181,771.5v5.156l-1.645-1.426L49,776.656V771.5Z" transform="translate(-49 -771.5)"/>
    </clipPath>
    <clipPath id="clip-path-2">
      <rect id="Rectangle_800" data-name="Rectangle 800" width="428" height="926" transform="translate(0 -0.289)"/>
    </clipPath>
    <clipPath id="clip-path-3">
      <path id="Path_245" data-name="Path 245" d="M56.909,773.594v18.868a2.085,2.085,0,0,1-.548,1.426,1.512,1.512,0,0,1-1.426.548H42.1V771.4h6.143v5.814a1.391,1.391,0,0,0,.11.658c.11.219.329.329.439.439h.548a.57.57,0,0,0,.439-.219l1.316-1.207,1.316,1.316c.11.219.439.329.658.439H53.4a.856.856,0,0,0,.439-.439,1.392,1.392,0,0,0,.11-.658v-5.814h.658a2.086,2.086,0,0,1,1.426.549A1.586,1.586,0,0,1,56.909,773.594Z" transform="translate(-42.1 -771.4)"/>
    </clipPath>
    <clipPath id="clip-path-5">
      <rect id="Rectangle_804" data-name="Rectangle 804" width="2.742" height="22.926"/>
    </clipPath>
  </defs>
  <g id="Group_1178" data-name="Group 1178" transform="translate(-42.123 -846.632)">
    <g id="Group_1098" data-name="Group 1098" transform="translate(53.75 846.741)">
      <g id="Group_1097" data-name="Group 1097" clip-path="url(#clip-path)">
        <g id="Group_1096" data-name="Group 1096" transform="translate(-53.75 -846.452)" clip-path="url(#clip-path-2)">
          <rect id="Rectangle_799" data-name="Rectangle 799" width="5.375" height="7.35" transform="translate(52.654 845.355)" fill="#0067ff" opacity="0.5"/>
        </g>
      </g>
    </g>
    <g id="Group_1101" data-name="Group 1101" transform="translate(46.182 846.632)">
      <g id="Group_1100" data-name="Group 1100" clip-path="url(#clip-path-3)">
        <g id="Group_1099" data-name="Group 1099" transform="translate(-46.182 -846.343)" clip-path="url(#clip-path-2)">
          <rect id="Rectangle_801" data-name="Rectangle 801" width="17.003" height="25.23" transform="translate(45.085 845.355)" fill="#0067ff"/>
        </g>
      </g>
    </g>
    <g id="Group_1103" data-name="Group 1103" transform="translate(42.123 846.741)">
      <g id="Group_1102" data-name="Group 1102" transform="translate(0 0)" clip-path="url(#clip-path-5)">
        <rect id="Rectangle_803" data-name="Rectangle 803" width="4.936" height="25.12" transform="translate(-1.097 -1.097)" fill="#0067ff"/>
      </g>
    </g>
  </g>
</svg>
