<svg id="Group_815" data-name="Group 815" xmlns="http://www.w3.org/2000/svg" xmlns:xlink="http://www.w3.org/1999/xlink" width="19.266" height="22.241" viewBox="0 0 19.266 22.241">
  <defs>
    <clipPath id="clip-path">
      <path id="Path_177" data-name="Path 177" d="M50.3,421.537v-2.523c0-.11.11-.219.11-.329a.4.4,0,0,1,.329-.11c.11,0,.219.11.329.11a.4.4,0,0,1,.11.329v2.523a.388.388,0,0,0,.439.439h5.265a.388.388,0,0,1,.439.439c0,.219-.219.439-.548.548H51.506a1.408,1.408,0,0,1-1.1-.439C50.409,422.305,50.3,421.976,50.3,421.537Zm6.8-6.362,1.755-1.755a.548.548,0,0,0,0-.658l-.11-.11c-.11-.11-.219-.11-.439,0-.11,0-.11.11-.219.11l-1.865,1.865a7.237,7.237,0,0,0-2.962-1.316v-1.974a1.5,1.5,0,0,0-1.536-1.536H50.08a1.5,1.5,0,0,0-1.536,1.536V413.2a8.418,8.418,0,0,0-3.071,1.316l-1.865-1.865-.11-.11h-.439a.107.107,0,0,0-.11.11l-.11.11v.439a.107.107,0,0,0,.11.11l1.755,1.755a9.56,9.56,0,0,0-2.852,10.64,9.617,9.617,0,0,0,14.589,4.607,9.594,9.594,0,0,0,3.73-10.421,10.4,10.4,0,0,0-3.071-4.717Z" transform="translate(-41.257 -409.8)"/>
    </clipPath>
    <clipPath id="clip-path-2">
      <rect id="Rectangle_582" data-name="Rectangle 582" width="428" height="926" transform="translate(0 -0.289)"/>
    </clipPath>
  </defs>
  <g id="Group_814" data-name="Group 814" clip-path="url(#clip-path)">
    <g id="Group_813" data-name="Group 813" transform="translate(-45.257 -449.686)" clip-path="url(#clip-path-2)">
      <rect id="Rectangle_581" data-name="Rectangle 581" width="23.036" height="25.23" transform="translate(43.329 448.589)" fill="#0067ff"/>
    </g>
  </g>
</svg>
