<svg xmlns="http://www.w3.org/2000/svg" xmlns:xlink="http://www.w3.org/1999/xlink" width="9.955" height="19.306" viewBox="0 0 9.955 19.306">
  <defs>
    <clipPath id="clip-path">
      <path id="Path_216" data-name="Path 216" d="M131.979,676.014a.57.57,0,0,1,.219.439v.439a.856.856,0,0,1-.439.439.989.989,0,0,1-.548.11H124.3V670.2h6.911a.822.822,0,0,1,.548.11.856.856,0,0,1,.439.439.334.334,0,0,1,0,.439.832.832,0,0,1-.219.439l-1.865,2.194Z" transform="translate(-124.3 -670.2)"/>
    </clipPath>
    <clipPath id="clip-path-2">
      <rect id="Rectangle_707" data-name="Rectangle 707" width="428" height="926" transform="translate(0 -0.289)"/>
    </clipPath>
    <clipPath id="clip-path-3">
      <path id="Path_217" data-name="Path 217" d="M122.939,688.506a.5.5,0,0,1-.439-.548V669.748a.729.729,0,0,1,.439-.549.388.388,0,0,1,.439.439v18.209a.4.4,0,0,1-.11.329Q123.1,688.506,122.939,688.506Z" transform="translate(-122.5 -669.2)"/>
    </clipPath>
  </defs>
  <g id="Group_1176" data-name="Group 1176" transform="translate(-134.376 -734.523)">
    <g id="Group_967" data-name="Group 967" transform="translate(136.351 735.62)">
      <g id="Group_966" data-name="Group 966" clip-path="url(#clip-path)">
        <g id="Group_965" data-name="Group 965" transform="translate(-136.351 -735.331)" clip-path="url(#clip-path-2)">
          <rect id="Rectangle_706" data-name="Rectangle 706" width="10.202" height="9.543" transform="translate(135.144 734.234)" fill="#0067ff"/>
        </g>
      </g>
    </g>
    <g id="Group_970" data-name="Group 970" transform="translate(134.376 734.523)">
      <g id="Group_969" data-name="Group 969" clip-path="url(#clip-path-3)">
        <g id="Group_968" data-name="Group 968" transform="translate(-134.376 -734.234)" clip-path="url(#clip-path-2)">
          <rect id="Rectangle_708" data-name="Rectangle 708" width="3.071" height="21.391" transform="translate(133.279 733.137)" fill="#0067ff"/>
        </g>
      </g>
    </g>
  </g>
</svg>
