<svg xmlns="http://www.w3.org/2000/svg" xmlns:xlink="http://www.w3.org/1999/xlink" width="16.399" height="16.345" viewBox="0 0 16.399 16.345">
  <defs>
    <clipPath id="clip-path">
      <path id="Path_157" data-name="Path 157" d="M345.861,290.794a.34.34,0,0,0-.11.219v.329l.548,3.62a2.415,2.415,0,0,1-.11.878,1.612,1.612,0,0,1-.548.658c-.219.219-.548.219-.768.329a1.585,1.585,0,0,1-.768-.219l-2.962-1.645a.548.548,0,0,0-.658,0l-2.852,1.645a2.066,2.066,0,0,1-.878.219,1.35,1.35,0,0,1-1.1-.548,2.211,2.211,0,0,1-.329-1.207l.548-3.62v-.329a.383.383,0,0,0-.11-.219l-2.523-2.633a1.768,1.768,0,0,1-.439-.768,1.2,1.2,0,0,1,0-.878c.11-.219.219-.548.439-.658a1,1,0,0,1,.768-.329l3.4-.548c.11,0,.219-.11.329-.11l.219-.219,1.426-3.181a2.907,2.907,0,0,1,.548-.658,1.5,1.5,0,0,1,1.645,0,1.123,1.123,0,0,1,.548.658l1.426,3.181a.236.236,0,0,0,.219.219.4.4,0,0,0,.329.11l3.4.548a1.639,1.639,0,0,1,.768.329,2.294,2.294,0,0,1,.439.658,1.2,1.2,0,0,1,0,.878,2.749,2.749,0,0,1-.439.768Z" transform="translate(-332.725 -280.675)"/>
    </clipPath>
    <clipPath id="clip-path-2">
      <rect id="Rectangle_534" data-name="Rectangle 534" width="428" height="926" transform="translate(0 -0.289)"/>
    </clipPath>
    <clipPath id="clip-path-3">
      <path id="Path_158" data-name="Path 158" d="M340.515,280.5v14.151h-.11c-.11,0-.11,0-.219.11l-2.852,1.645a2.067,2.067,0,0,1-.878.219,1.35,1.35,0,0,1-1.1-.548,2.211,2.211,0,0,1-.329-1.207l.548-3.62v-.329a.383.383,0,0,0-.11-.219l-2.523-2.633a1.768,1.768,0,0,1-.439-.768,1.2,1.2,0,0,1,0-.878c.11-.219.219-.548.548-.658a1,1,0,0,1,.768-.329l3.4-.548c.11,0,.219-.11.329-.11l.219-.219,1.426-3.181a2.908,2.908,0,0,1,.548-.658A2.034,2.034,0,0,1,340.515,280.5Z" transform="translate(-332.425 -280.5)"/>
    </clipPath>
  </defs>
  <g id="Group_1181" data-name="Group 1181" transform="translate(-364.653 -308.139)">
    <g id="Group_744" data-name="Group 744" transform="translate(364.982 308.331)">
      <g id="Group_743" data-name="Group 743" clip-path="url(#clip-path)">
        <g id="Group_742" data-name="Group 742" transform="translate(-364.982 -308.042)" clip-path="url(#clip-path-2)">
          <rect id="Rectangle_533" data-name="Rectangle 533" width="18.209" height="18.319" transform="translate(363.858 306.863)" fill="#c1c7d1"/>
        </g>
      </g>
    </g>
    <g id="Group_747" data-name="Group 747" transform="translate(364.653 308.139)">
      <g id="Group_746" data-name="Group 746" transform="translate(0 0)" clip-path="url(#clip-path-3)">
        <g id="Group_745" data-name="Group 745" transform="translate(-364.653 -307.85)" clip-path="url(#clip-path-2)">
          <rect id="Rectangle_535" data-name="Rectangle 535" width="10.202" height="18.209" transform="translate(363.639 306.753)" fill="#ffbd00"/>
        </g>
      </g>
    </g>
  </g>
</svg>
