<svg xmlns="http://www.w3.org/2000/svg" xmlns:xlink="http://www.w3.org/1999/xlink" width="18.977" height="19.251" viewBox="0 0 18.977 19.251">
  <defs>
    <clipPath id="clip-path">
      <path id="Path_207" data-name="Path 207" d="M265.739,686.926a.388.388,0,0,1-.439-.439v-.548a.388.388,0,0,1,.439-.439c.11,0,.219.11.329.11a.4.4,0,0,1,.11.329v.548a.4.4,0,0,1-.11.329C265.958,686.816,265.848,686.926,265.739,686.926Z" transform="translate(-265.3 -685.5)"/>
    </clipPath>
    <clipPath id="clip-path-2">
      <rect id="Rectangle_685" data-name="Rectangle 685" width="428" height="926" transform="translate(0 -0.289)"/>
    </clipPath>
    <clipPath id="clip-path-3">
      <path id="Path_208" data-name="Path 208" d="M265.739,672.6c-.11,0-.219-.11-.329-.11a.4.4,0,0,1-.11-.329v-2.413a.4.4,0,0,1,.11-.329.53.53,0,0,1,.768,0,.4.4,0,0,1,.11.329v2.413c0,.11-.11.219-.11.329A.83.83,0,0,1,265.739,672.6Z" transform="translate(-265.3 -669.25)"/>
    </clipPath>
    <clipPath id="clip-path-5">
      <path id="Path_209" data-name="Path 209" d="M258.726,678.978h-.987a.388.388,0,0,1-.439-.439c0-.11.11-.219.11-.329a.4.4,0,0,1,.329-.11h.987a.467.467,0,0,1,.329.768C259.055,678.978,258.945,678.978,258.726,678.978Z" transform="translate(-257.3 -678.1)"/>
    </clipPath>
    <clipPath id="clip-path-7">
      <path id="Path_210" data-name="Path 210" d="M274.552,678.987h-2.3c-.219,0-.439-.219-.548-.548,0-.11.11-.219.11-.329a.4.4,0,0,1,.329-.11h2.3a.388.388,0,0,1,.439.439c0,.11-.11.219-.11.329C274.771,678.987,274.662,678.987,274.552,678.987Z" transform="translate(-271.7 -678)"/>
    </clipPath>
    <clipPath id="clip-path-9">
      <path id="Path_211" data-name="Path 211" d="M260.926,674.174a.4.4,0,0,1-.329-.11l-.987-.987a.383.383,0,0,1-.11-.219v-.439a.107.107,0,0,1,.11-.11.383.383,0,0,1,.219-.11h.439l.219.11.987.987.11.11a.206.206,0,0,1,0,.329.107.107,0,0,1-.11.11C261.255,674.065,261.145,674.174,260.926,674.174Z" transform="translate(-259.5 -672.2)"/>
    </clipPath>
    <clipPath id="clip-path-11">
      <path id="Path_212" data-name="Path 212" d="M260.139,684.643c-.219,0-.439-.11-.439-.329v-.329a.383.383,0,0,1,.11-.219l.548-.548a.383.383,0,0,1,.219-.11c.11-.11.219-.11.439,0a.107.107,0,0,1,.11.11.548.548,0,0,1,0,.658l-.548.548a.383.383,0,0,1-.219.11C260.358,684.643,260.248,684.643,260.139,684.643Z" transform="translate(-259.7 -683.025)"/>
    </clipPath>
    <clipPath id="clip-path-13">
      <path id="Path_213" data-name="Path 213" d="M270.239,674.55a.4.4,0,0,1-.329-.11c0-.11-.11-.11-.11-.219v-.439c0-.11.11-.11.11-.219l1.645-1.645.11-.11c.11-.11.219-.11.439,0a.107.107,0,0,1,.11.11.383.383,0,0,1,.11.219v.439c0,.11-.11.11-.11.219l-1.645,1.645C270.568,674.55,270.458,674.55,270.239,674.55Z" transform="translate(-269.8 -671.725)"/>
    </clipPath>
  </defs>
  <g id="Group_1177" data-name="Group 1177" transform="translate(-282.245 -734.578)">
    <g id="Group_934" data-name="Group 934" transform="translate(291.021 752.404)">
      <g id="Group_933" data-name="Group 933" clip-path="url(#clip-path)">
        <g id="Group_932" data-name="Group 932" transform="translate(-291.02 -752.115)" clip-path="url(#clip-path-2)">
          <rect id="Rectangle_684" data-name="Rectangle 684" width="3.181" height="3.73" transform="translate(289.814 750.908)" fill="#0067ff" opacity="0.5"/>
        </g>
      </g>
    </g>
    <g id="Group_937" data-name="Group 937" transform="translate(291.021 734.578)">
      <g id="Group_936" data-name="Group 936" clip-path="url(#clip-path-3)">
        <g id="Group_935" data-name="Group 935" transform="translate(-291.02 -734.289)" clip-path="url(#clip-path-2)">
          <rect id="Rectangle_686" data-name="Rectangle 686" width="3.181" height="5.704" transform="translate(289.814 733.138)" fill="#0067ff"/>
        </g>
      </g>
    </g>
    <g id="Group_940" data-name="Group 940" transform="translate(282.245 744.286)">
      <g id="Group_939" data-name="Group 939" clip-path="url(#clip-path-5)">
        <g id="Group_938" data-name="Group 938" transform="translate(-282.245 -743.997)" clip-path="url(#clip-path-2)">
          <rect id="Rectangle_688" data-name="Rectangle 688" width="4.278" height="3.181" transform="translate(281.038 742.791)" fill="#0067ff" opacity="0.5"/>
        </g>
      </g>
    </g>
    <g id="Group_943" data-name="Group 943" transform="translate(298.041 744.177)">
      <g id="Group_942" data-name="Group 942" clip-path="url(#clip-path-7)">
        <g id="Group_941" data-name="Group 941" transform="translate(-298.041 -743.888)" clip-path="url(#clip-path-2)">
          <rect id="Rectangle_690" data-name="Rectangle 690" width="5.594" height="3.181" transform="translate(296.944 742.791)" fill="#0067ff"/>
        </g>
      </g>
    </g>
    <g id="Group_946" data-name="Group 946" transform="translate(284.658 737.814)">
      <g id="Group_945" data-name="Group 945" clip-path="url(#clip-path-9)">
        <g id="Group_944" data-name="Group 944" transform="translate(-284.658 -737.525)" clip-path="url(#clip-path-2)">
          <rect id="Rectangle_692" data-name="Rectangle 692" width="4.168" height="4.168" transform="translate(283.561 736.428)" fill="#0067ff"/>
        </g>
      </g>
    </g>
    <g id="Group_949" data-name="Group 949" transform="translate(284.878 749.689)">
      <g id="Group_948" data-name="Group 948" clip-path="url(#clip-path-11)">
        <g id="Group_947" data-name="Group 947" transform="translate(-284.878 -749.4)" clip-path="url(#clip-path-2)">
          <rect id="Rectangle_694" data-name="Rectangle 694" width="3.73" height="3.73" transform="translate(283.781 748.385)" fill="#0067ff" opacity="0.5"/>
        </g>
      </g>
    </g>
    <g id="Group_952" data-name="Group 952" transform="translate(295.957 737.293)">
      <g id="Group_951" data-name="Group 951" clip-path="url(#clip-path-13)">
        <g id="Group_950" data-name="Group 950" transform="translate(-295.957 -737.004)" clip-path="url(#clip-path-2)">
          <rect id="Rectangle_696" data-name="Rectangle 696" width="4.827" height="4.936" transform="translate(294.86 735.99)" fill="#0067ff"/>
        </g>
      </g>
    </g>
  </g>
</svg>
