<svg xmlns="http://www.w3.org/2000/svg" xmlns:xlink="http://www.w3.org/1999/xlink" width="19.205" height="16.242" viewBox="0 0 19.205 16.242">
  <defs>
    <clipPath id="clip-path">
      <path id="Path_136" data-name="Path 136" d="M42.724,737.588a1.5,1.5,0,0,0-1.536,1.536v11.084a1.5,1.5,0,0,0,1.536,1.536H56.881a1.5,1.5,0,0,0,1.536-1.536V739.014a1.5,1.5,0,0,0-1.536-1.536Zm14.267,15.254H42.724a2.183,2.183,0,0,1-1.756-.768,2.59,2.59,0,0,1-.768-1.756V739.124a2.183,2.183,0,0,1,.768-1.756,2.59,2.59,0,0,1,1.756-.768H56.881a2.184,2.184,0,0,1,1.756.768,2.59,2.59,0,0,1,.768,1.756v11.194a2.183,2.183,0,0,1-.768,1.756A2.145,2.145,0,0,1,56.991,752.842Z" transform="translate(-40.2 -736.6)"/>
    </clipPath>
    <clipPath id="clip-path-2">
      <rect id="Rectangle_464" data-name="Rectangle 464" width="428" height="926"/>
    </clipPath>
    <clipPath id="clip-path-3">
      <path id="Path_137" data-name="Path 137" d="M49.487,744.558a.838.838,0,0,1-.549-.219l-4.829-3.951-.11-.11v-.658c.11-.11.219-.11.329-.219a.4.4,0,0,1,.329.11l4.719,3.951L54.1,739.51a.4.4,0,0,1,.329-.11c.11,0,.219.11.329.219a.383.383,0,0,1,.11.219v.439a.107.107,0,0,1-.11.11l-4.829,3.951C49.926,744.448,49.707,744.558,49.487,744.558Z" transform="translate(-44 -739.4)"/>
    </clipPath>
  </defs>
  <g id="Group_691" data-name="Group 691" transform="translate(-44.117 -808.371)">
    <g id="Group_645" data-name="Group 645" transform="translate(44.117 808.371)">
      <g id="Group_644" data-name="Group 644" clip-path="url(#clip-path)">
        <g id="Group_643" data-name="Group 643" transform="translate(-44.117 -808.371)" clip-path="url(#clip-path-2)">
          <rect id="Rectangle_463" data-name="Rectangle 463" width="21.4" height="18.437" transform="translate(43.019 807.274)" fill="#1d1d1b"/>
        </g>
      </g>
    </g>
    <g id="Group_648" data-name="Group 648" transform="translate(48.287 811.444)">
      <g id="Group_647" data-name="Group 647" clip-path="url(#clip-path-3)">
        <g id="Group_646" data-name="Group 646" transform="translate(-48.287 -811.444)" clip-path="url(#clip-path-2)">
          <rect id="Rectangle_465" data-name="Rectangle 465" width="13.279" height="7.243" transform="translate(47.19 810.456)" fill="#1d1d1b"/>
        </g>
      </g>
    </g>
  </g>
</svg>
