<svg xmlns="http://www.w3.org/2000/svg" xmlns:xlink="http://www.w3.org/1999/xlink" width="16.07" height="16.153" viewBox="0 0 16.07 16.153">
  <defs>
    <clipPath id="clip-path">
      <path id="Path_203" data-name="Path 203" d="M345.861,492.794a.34.34,0,0,0-.11.219v.329l.548,3.62a2.415,2.415,0,0,1-.11.878,1.612,1.612,0,0,1-.548.658c-.219.219-.548.219-.768.329a1.586,1.586,0,0,1-.768-.219l-2.962-1.645a.548.548,0,0,0-.658,0l-2.852,1.645a2.067,2.067,0,0,1-.878.219,1.35,1.35,0,0,1-1.1-.549,2.211,2.211,0,0,1-.329-1.207l.548-3.62v-.329a.383.383,0,0,0-.11-.219l-2.523-2.633a1.768,1.768,0,0,1-.439-.768,1.2,1.2,0,0,1,0-.878c.11-.219.219-.549.439-.658a1,1,0,0,1,.768-.329l3.4-.548c.11,0,.219-.11.329-.11l.219-.219,1.426-3.181a2.908,2.908,0,0,1,.548-.658,1.5,1.5,0,0,1,1.645,0,1.123,1.123,0,0,1,.548.658l1.426,3.181a.236.236,0,0,0,.219.219.4.4,0,0,0,.329.11l3.4.548a1.639,1.639,0,0,1,.768.329,2.294,2.294,0,0,1,.439.658,1.2,1.2,0,0,1,0,.878,2.75,2.75,0,0,1-.439.768Z" transform="translate(-332.725 -482.675)"/>
    </clipPath>
    <clipPath id="clip-path-2">
      <rect id="Rectangle_671" data-name="Rectangle 671" width="389" height="95" transform="translate(-0.27 -0.441)"/>
    </clipPath>
  </defs>
  <g id="Group_913" data-name="Group 913" clip-path="url(#clip-path)">
    <g id="Group_912" data-name="Group 912" transform="translate(-345.712 -19.474)" clip-path="url(#clip-path-2)">
      <rect id="Rectangle_670" data-name="Rectangle 670" width="18.209" height="18.319" transform="translate(344.588 18.295)" fill="#c1c7d1"/>
    </g>
  </g>
</svg>
