<svg id="Group_1144" data-name="Group 1144" xmlns="http://www.w3.org/2000/svg" xmlns:xlink="http://www.w3.org/1999/xlink" width="22.387" height="25.751" viewBox="0 0 22.387 25.751">
  <defs>
    <clipPath id="clip-path">
      <path id="Path_257" data-name="Path 257" d="M207.179,784.887a11.189,11.189,0,1,1-22.378,0,10.329,10.329,0,0,1,2.3-6.911l.219-.219a2.909,2.909,0,0,0,.548-.658h.329c.11,0,.219.11.329.219a.548.548,0,0,1,0,.658l-.11.11-.329.439a10.277,10.277,0,0,0-2.3,6.362,10.053,10.053,0,0,0,6.8,9.543,9.95,9.95,0,0,0,11.189-3.4,10.052,10.052,0,0,0,.329-11.737,10.174,10.174,0,0,0-10.969-4.059l3.181,1.645c.11.11.219.11.219.329v.439c0,.11-.11.219-.219.329a.4.4,0,0,1-.329.11c-.11,0-.219,0-.219-.11l-4.168-2.084c-.11,0-.11-.11-.219-.11,0-.11-.11-.11-.11-.219v-.329a.4.4,0,0,1,.11-.329l2.194-4.168.329-.329a.334.334,0,0,1,.439,0c.11,0,.11.11.219.11,0,.11.11.11.11.219v.219c0,.11,0,.11-.11.219l-1.536,2.962a12.838,12.838,0,0,1,2.852-.439A11.19,11.19,0,0,1,207.179,784.887Z" transform="translate(-184.792 -770.325)"/>
    </clipPath>
    <clipPath id="clip-path-2">
      <rect id="Rectangle_831" data-name="Rectangle 831" width="428" height="926" transform="translate(0 -0.289)"/>
    </clipPath>
  </defs>
  <g id="Group_1143" data-name="Group 1143" clip-path="url(#clip-path)">
    <g id="Group_1142" data-name="Group 1142" transform="translate(-202.707 -845.163)" clip-path="url(#clip-path-2)">
      <rect id="Rectangle_830" data-name="Rectangle 830" width="24.681" height="28.082" transform="translate(201.509 843.929)" fill="#bcc6d4"/>
    </g>
  </g>
</svg>
