<svg xmlns="http://www.w3.org/2000/svg" xmlns:xlink="http://www.w3.org/1999/xlink" width="22.899" height="22.864" viewBox="0 0 22.899 22.864">
  <defs>
    <clipPath id="clip-path">
      <path id="Path_260" data-name="Path 260" d="M277.641,790.651A11.444,11.444,0,0,1,263.6,792.3a2.789,2.789,0,0,0,.768-.219l9.214-3.73a3.853,3.853,0,0,0,1.865-1.865l3.73-9.324c.11-.219.11-.439.219-.658a11.6,11.6,0,0,1-1.755,14.151Z" transform="translate(-263.6 -776.5)"/>
    </clipPath>
    <clipPath id="clip-path-2">
      <rect id="Rectangle_839" data-name="Rectangle 839" width="428" height="926" transform="translate(0 -0.289)"/>
    </clipPath>
    <clipPath id="clip-path-3">
      <path id="Path_261" data-name="Path 261" d="M272.154,785.16a3.342,3.342,0,0,1-1.755.878,3.1,3.1,0,0,1-1.975-.219,3.344,3.344,0,0,1-2.084-3.181,3.7,3.7,0,0,1,.548-1.865,3.033,3.033,0,0,1,1.426-1.207,4.083,4.083,0,0,1,1.974-.219,3.193,3.193,0,0,1,2.523,2.3,3.347,3.347,0,0,1-.658,3.51Zm5.485-10.311a2.024,2.024,0,0,0-1.316-.548,1.867,1.867,0,0,0-.768.11l-9.214,3.839a1.811,1.811,0,0,0-1.1,1.1l-3.73,9.324a1.9,1.9,0,0,0-.11,1.1,1.781,1.781,0,0,0,.548.987,4.443,4.443,0,0,0,.987.548,1.9,1.9,0,0,0,1.1-.11l9.214-3.839a2.138,2.138,0,0,0,1.1-1.1l3.73-9.324a1.9,1.9,0,0,0,.11-1.1A1.477,1.477,0,0,0,277.639,774.848Z" transform="translate(-261.359 -774.3)"/>
    </clipPath>
    <clipPath id="clip-path-5">
      <path id="Path_262" data-name="Path 262" d="M270.61,783.6a2.019,2.019,0,1,1-2.852-2.852,2.3,2.3,0,0,1,.658-.439,2.741,2.741,0,0,1,1.536,0,2.746,2.746,0,0,1,.768.439,2.31,2.31,0,0,1,.548,1.426A1.769,1.769,0,0,1,270.61,783.6Z" transform="translate(-267.1 -780.2)"/>
    </clipPath>
    <clipPath id="clip-path-7">
      <path id="Path_263" data-name="Path 263" d="M276.039,773.246a1.558,1.558,0,0,0-.658.219l-9.324,3.839a3.271,3.271,0,0,0-1.755,1.865l-3.73,9.324c-.11.219-.11.439-.219.658a11.6,11.6,0,0,1-.329-11.628,11.4,11.4,0,0,1,9.982-5.924A10.9,10.9,0,0,1,276.039,773.246Z" transform="translate(-258.621 -771.589)"/>
    </clipPath>
  </defs>
  <g id="Group_1182" data-name="Group 1182" transform="translate(-283.694 -846.839)">
    <g id="Group_1157" data-name="Group 1157" transform="translate(289.156 852.226)">
      <g id="Group_1156" data-name="Group 1156" clip-path="url(#clip-path)">
        <g id="Group_1155" data-name="Group 1155" transform="translate(-289.156 -851.937)" clip-path="url(#clip-path-2)">
          <rect id="Rectangle_838" data-name="Rectangle 838" width="20.732" height="20.732" transform="translate(288.059 850.95)" fill="#bcc6d4"/>
        </g>
      </g>
    </g>
    <g id="Group_1160" data-name="Group 1160" transform="translate(286.697 849.813)">
      <g id="Group_1159" data-name="Group 1159" clip-path="url(#clip-path-3)">
        <g id="Group_1158" data-name="Group 1158" transform="translate(-286.697 -849.524)" clip-path="url(#clip-path-2)">
          <rect id="Rectangle_840" data-name="Rectangle 840" width="19.197" height="19.306" transform="translate(285.536 848.427)" fill="#bcc6d4" opacity="0.5"/>
        </g>
      </g>
    </g>
    <g id="Group_1163" data-name="Group 1163" transform="translate(292.995 856.285)">
      <g id="Group_1162" data-name="Group 1162" clip-path="url(#clip-path-5)">
        <g id="Group_1161" data-name="Group 1161" transform="translate(-292.995 -855.996)" clip-path="url(#clip-path-2)">
          <rect id="Rectangle_842" data-name="Rectangle 842" width="6.362" height="6.362" transform="translate(291.898 854.789)" fill="#bcc6d4"/>
        </g>
      </g>
    </g>
    <g id="Group_1166" data-name="Group 1166" transform="translate(283.694 846.839)">
      <g id="Group_1165" data-name="Group 1165" clip-path="url(#clip-path-7)">
        <g id="Group_1164" data-name="Group 1164" transform="translate(-283.694 -846.55)" clip-path="url(#clip-path-2)">
          <rect id="Rectangle_844" data-name="Rectangle 844" width="20.294" height="19.745" transform="translate(281.916 845.355)" fill="#bcc6d4"/>
        </g>
      </g>
    </g>
  </g>
</svg>
